# xmcd
#
# Track frame offsets:
#	150
#	18944
#	39116
#	54872
#	68527
#	86812
#	105404
#	118878
#	134057
#	149078
#	164944
#	180824
#	195956
#	213417
#	229075
#	244254
#	264748
#	281032
#
# Disc length: 3951 seconds
#
# Revision: 1
# Processed by: cddbd v1.4PL0 Copyright (c) Steve Scherf et al.
# Submitted via: audiograbber 1.80
#
DISCID=050f6d12
DTITLE=Various Artist - Hott Trakks 73
DYEAR=1900
DGENRE=
TTITLE0=Paul Brandt - Small Towns And Big Dreams
TTITLE1=Jason McCoy - I've Got A Weakness
TTITLE2=Derailers - Bar Exam
TTITLE3=Jessica Andrews - Karma
TTITLE4=Alan Jackson - Drive
TTITLE5=Carolyn Dawn Johnson - You Are
TTITLE6=Andy Griggs - Tinight I Wanna Be Your Man
TTITLE7=Alison Kraus and Union Station - Let Me Touch You For Awile
TTITLE8=Chris Cummings - Cowboy Hats
TTITLE9=Doc Walker - Whoever Made Those Rules
TTITLE10=Great Big Sea - Sea Of No Cares
TTITLE11=Kasey Chambers - Not Pretty Enough
TTITLE12=Trace Adkins - Help Me Understand
TTITLE13=Reba McEntire - Sweet Music Man
TTITLE14=Mark Chestnutt - She Was
TTITLE15=Willie Nelson and Lee Ann Womack - Mendocino County Line
TTITLE16=brad Martin - Before I Knew Better
TTITLE17=L.J. Daylee - North Of The Moon
EXTD=
EXTT0=
EXTT1=
EXTT2=
EXTT3=
EXTT4=
EXTT5=
EXTT6=
EXTT7=
EXTT8=
EXTT9=
EXTT10=
EXTT11=
EXTT12=
EXTT13=
EXTT14=
EXTT15=
EXTT16=
EXTT17=
PLAYORDER=
